<?xml version="1.0" encoding="utf-8"?><svg viewBox="0 0 48 45" xmlns="http://www.w3.org/2000/svg" xmlns:xlink="http://www.w3.org/1999/xlink"><style>:root>svg{display:none}:root>svg:target{display:block}</style><svg viewBox="0 0 12 12" id="btn-arrow" xmlns="http://www.w3.org/2000/svg"><path d="M4 2l4.95 4L4 10"/></svg><svg viewBox="0 0 32 32" id="burger-close" xmlns="http://www.w3.org/2000/svg"><path d="M23.884 6.706L16 14.59 8.116 6.706a.998.998 0 00-1.41 1.41L14.586 16l-7.882 7.882a.997.997 0 101.41 1.412L16 17.412l7.884 7.884a.998.998 0 001.41-1.41l-7.884-7.884 7.884-7.886a.997.997 0 10-1.41-1.412v.002z"/></svg><svg viewBox="0 0 32 32" id="burger-open" xmlns="http://www.w3.org/2000/svg"><path d="M6 10h20M6 16h20M6 22h20"/></svg><svg viewBox="0 0 20 20" id="close-modal" xmlns="http://www.w3.org/2000/svg"><g clip-path="url(#da)"><path d="M10.783 10l4.606-4.606a.556.556 0 00-.784-.783L10 9.217 5.394 4.606a.558.558 0 00-.789.788L9.216 10l-4.61 4.605a.556.556 0 10.783.784l4.61-4.606 4.606 4.606a.556.556 0 00.784-.784L10.783 10z"/></g><defs><clipPath id="da"><path d="M0 0h20v20H0z"/></clipPath></defs></svg><svg viewBox="0 0 41 16" id="descr-arrow" xmlns="http://www.w3.org/2000/svg"><path d="M40.707 8.707a1 1 0 000-1.414L34.343.929a1 1 0 10-1.414 1.414L38.586 8l-5.657 5.657a1 1 0 001.414 1.414l6.364-6.364zM0 9h40V7H0v2z"/></svg><svg viewBox="0 0 34 34" id="facebook" xmlns="http://www.w3.org/2000/svg"><path d="M17 34c9.389 0 17-7.611 17-17S26.389 0 17 0 0 7.611 0 17s7.611 17 17 17z"/><path d="M21.724 16.98H18.95V27.2h-4.202V16.98H12.75v-3.59h1.998v-2.324c0-1.662.785-4.265 4.24-4.265l3.112.013V10.3h-2.258c-.37 0-.891.187-.891.98v2.113h3.14l-.367 3.588z"/></svg><svg viewBox="0 0 34 34" id="github" xmlns="http://www.w3.org/2000/svg"><circle cx="17" cy="17" r="17"/><path d="M17 7C11.507 7 7 11.507 7 17c0 4.687 3.289 8.945 7.656 10v-3.308a2.45 2.45 0 01-1.271-.033c-.591-.174-1.071-.568-1.428-1.168-.227-.383-.63-.8-1.05-.769l-.103-1.167c.909-.078 1.694.554 2.16 1.337.208.349.447.553.753.643.295.088.613.046.983-.085.093-.741.433-1.018.69-1.41-2.605-.388-3.643-1.77-4.055-2.86-.546-1.449-.253-3.258.712-4.402.019-.022.053-.08.04-.12-.443-1.338.096-2.444.116-2.561.511.15.594-.152 2.22.835l.28.169c.118.07.08.03.198.02A8.484 8.484 0 0117 11.828c.71.009 1.42.11 2.127.302l.091.01c-.008-.002.025-.006.08-.039 2.03-1.23 1.957-.828 2.502-1.005.02.118.551 1.242.113 2.562-.059.182 1.76 1.848.752 4.522-.412 1.09-1.45 2.473-4.054 2.861.334.51.735.78.733 1.83V27C23.71 25.945 27 21.687 27 17c0-5.493-4.507-10-10-10z"/></svg><svg viewBox="0 0 48 45" id="logo" xmlns="http://www.w3.org/2000/svg"><path d="M24.486 19.925c2.3-6.166-2.461-9.54-5.617-11.76-.603-.452-1.206-.876-1.695-1.263a5.893 5.893 0 01-1.854-2.769 5.832 5.832 0 01-.047-3.32.637.637 0 00-.187-.642.655.655 0 00-.664-.132c-1.062.415-2.05.997-2.926 1.723a6.893 6.893 0 00-1.992 2.405 6.809 6.809 0 00-.717 3.027A8.026 8.026 0 007.224 8.81a5.878 5.878 0 00-1.152 3.786 7.492 7.492 0 00-2.09 3.222 7.417 7.417 0 00-.209 3.82 2.04 2.04 0 00-.847.99 2.005 2.005 0 00-.066 1.296c.122.427.382.803.741 1.07.36.267.797.41 1.246.407h.042v3.506c0 .356.143.697.398.949s.6.393.96.393h1.056l1.72 14.728c.035.328.192.631.44.851.25.22.571.342.905.342h7.156c.334-.001.656-.123.905-.343a1.34 1.34 0 00.446-.85l1.72-14.728h1.056c.36 0 .705-.141.96-.393.254-.252.397-.593.397-.949v-3.506h.043a2.07 2.07 0 001.454-.596c.386-.38.603-.898.603-1.437a1.987 1.987 0 00-.603-1.45l-.018.007zM8.998 8.738c.87 3.226 4.224 4.496 7.283 5.63a.663.663 0 00.958-.32.644.644 0 00-.23-.762.662.662 0 00-.264-.111c-3.294-1.235-6.401-2.385-6.637-5.683a5.46 5.46 0 01.502-2.637 5.528 5.528 0 011.7-2.091 9.84 9.84 0 011.473-1.002 7.666 7.666 0 000 1.24c.07.945.331 1.866.769 2.71a7.081 7.081 0 001.777 2.198c.5.423 1.122.858 1.81 1.323 1.587 1.127 3.391 2.385 4.537 4.09a6.308 6.308 0 01.658 6.052h-2.667c-5.496.001-11.813-1.502-13.062-5.711a4.775 4.775 0 01.005-2.649 4.822 4.822 0 011.418-2.247l-.03-.03zm4.948 20.328l2.015 1.991-2.015 1.992-2.015-2.004 2.015-1.98zm4.622 5.23l-1.666 1.645-2.015-1.992 2.015-1.985 1.75 1.723-.084.608zm-4.622 4.567L11.93 36.87l2.015-1.992 2.015 1.992-2.015 1.992zm-.923-4.902l-2.015 1.992-1.678-1.658-.072-.596 1.75-1.723 2.015 1.985zm-2.945 2.91l-.404.4-.102-.907.506.507zm-.21 2.04l1.14-1.128 2.214 2.207a.985.985 0 00.042.13h-3.258l-.139-1.21zm7.022-1.128l1.14 1.127-.138 1.193h-3.349l2.347-2.32zm1.328-.512l-.405-.4.513-.507-.108.907zm.603-5.212l-1.008-1.014 1.28-1.264-.272 2.278zm-1.937-1.92l-1.912-1.884h3.825l-1.913 1.884zm-5.883 0L9.09 28.255h3.825l-1.912 1.884zm6.517 12.737h-7.15a.048.048 0 01-.042-.042l-.17-1.431h7.579l-.163 1.431a.048.048 0 01-.048.042h-.006zM23.05 22.1h-2.1a.667.667 0 00-.504.166.65.65 0 00-.16.744.65.65 0 00.394.354c.087.029.18.039.27.03h.749V26.9a.048.048 0 01-.048.042H6.223a.048.048 0 01-.048-.042v-3.506h11.952a.66.66 0 00.424-.21.646.646 0 00-.424-1.084H4.853a.754.754 0 01-.751-.438.732.732 0 01.18-.844.751.751 0 01.571-.19h1.37a.66.66 0 00.424-.21.646.646 0 000-.875.66.66 0 00-.424-.21H5.016a6.32 6.32 0 01.082-2.736 6.363 6.363 0 011.233-2.451c.423 1.3 1.509 3.077 4.224 4.49 2.552 1.317 5.931 1.991 10.04 1.991h2.413a.757.757 0 01.572.19.74.74 0 01.244.547.733.733 0 01-.244.546.749.749 0 01-.572.19h.043zm4.818 17.156l-.483.74.01.007.473-.747zm5.199.25l.884-.02-.023-1.023-1.01.171.149.872zm.06 2.72l.225.856.675-.178-.016-.697-.884.02zm-6.823.13l.199-.862h-.005l-.194.862zm-3.368-1.503l.573-.674-.002-.001-.57.675zM21.72 38.09l.884.004v-.004h-.884zm.423-1.935l-.794-.39v.001l.794.39zm2.712-2.314l.313.826h.004l-.317-.826zm8.688-.225l.882.069.058-.747-.727-.18-.213.858zm-.216 2.772l-.165.87.97.183.077-.984-.882-.069zm-2.358-1.134c-1.327 0-2.443.141-3.258.5-.417.183-.797.442-1.074.807a2.081 2.081 0 00-.421 1.278h1.768a.32.32 0 01.063-.21c.046-.06.15-.156.376-.256.475-.209 1.294-.35 2.546-.35v-1.77zm-4.753 2.585c0 .91.408 1.66 1.17 2.158l.966-1.482c-.263-.171-.367-.365-.367-.676h-1.77zm1.18 2.164c.722.457 1.675.63 2.744.63v-1.77c-.923 0-1.484-.156-1.798-.355l-.947 1.495zm2.744.63c1.05 0 2.075-.085 3.076-.255l-.296-1.744c-.9.153-1.826.23-2.78.23v1.768zm2.044-1.107l.06 2.72 1.768-.04-.06-2.72-1.768.04zm.72 1.845c-1.012.266-2.127.403-3.351.403v1.769c1.355 0 2.624-.151 3.8-.461l-.45-1.71zm-3.351.403c-1.25 0-2.26-.098-3.049-.28l-.397 1.724c.962.221 2.116.325 3.446.325v-1.769zm-3.054-.28c-.845-.19-1.454-.39-1.86-.589l-.777 1.59c.584.285 1.344.522 2.25.724l.387-1.726zm-1.86-.589a5.384 5.384 0 01-1.13-.726l-1.144 1.349a7.13 7.13 0 001.497.966l.776-1.589zm-1.13-.727c-.602-.508-.91-1.172-.905-2.084l-1.769-.009c-.007 1.391.497 2.57 1.532 3.444l1.141-1.351zm-.905-2.088c0-.595.117-1.104.333-1.546l-1.588-.778c-.348.71-.514 1.49-.514 2.324h1.769zm.332-1.545c.403-.818 1.113-1.453 2.232-1.878l-.627-1.653c-1.46.554-2.558 1.462-3.192 2.75l1.587.781zm2.236-1.879c1.176-.451 2.49-.684 3.949-.684v-1.768c-1.65 0-3.18.262-4.583.801l.634 1.651zm3.949-.684c1.489 0 2.89.166 4.21.492l.425-1.716a19.201 19.201 0 00-4.635-.544v1.768zm3.54-.435l-.216 2.773 1.764.137.216-2.772-1.764-.138zm.83 1.973c-.92-.175-1.762-.267-2.522-.267v1.77c.622 0 1.352.075 2.193.234l.33-1.737zm8.63 1.412l-.005.885.898.005-.01-.899-.883.01zm-.38-1.148l-.602.648.008.007.594-.655zm-2.203.086l.613.638.006-.006-.619-.632zm-.535 1.045l-.873-.143-.168 1.022 1.036.006.005-.885zm6.503 4.716l.534.704.318-.24.03-.398-.882-.066zm-1.909.708l-.19-.864-.005.001.195.863zm-6.632-.242l-.302.831.007.003.295-.834zm-1.512-.803l-.549.693.011.008.538-.701zm-1.01-1.27l-.793.392.002.004.79-.396zm1.036-5.363l.588.66-.588-.66zm8.084-.959l.354-.81-.009-.004-.345.814zm2.03 1.866l-.796.387.002.005.794-.392zm.345 1.546l.882.064.002-.032v-.032h-.884zm-.104 1.425l-.004.884.826.004.06-.824-.882-.064zm-7.004-.035l.005-.884-1.154-.006.294 1.116.855-.226zm1.002 1.235l-.435.77.003.002.432-.772zm5.372-.302v-.884h-.177l-.163.068.34.816zm.466 0l.882.066.071-.95h-.953v.884zm-2.665-2.514c-.007-.64-.154-1.326-.67-1.794l-1.189 1.31c-.01-.01.01.002.036.078.026.081.052.216.054.425l1.769-.019zm-.663-1.787c-.464-.431-1.073-.573-1.672-.573v1.768c.344 0 .45.083.469.1l1.203-1.295zm-1.672-.573c-.659 0-1.271.206-1.75.675l1.237 1.264c.097-.095.239-.17.513-.17v-1.77zm-1.744.67a2.697 2.697 0 00-.796 1.539l1.745.287a.93.93 0 01.276-.55l-1.225-1.277zm.072 2.567l3.118.017.01-1.769-3.118-.017-.01 1.769zm5.974 3.126c-.194.147-.667.352-1.565.55l.38 1.727c.934-.206 1.733-.473 2.253-.868l-1.068-1.41zm-1.57.55c-.857.194-1.68.29-2.473.29v1.768c.934 0 1.89-.112 2.864-.333l-.39-1.725zm-2.473.29c-.834 0-1.52-.04-2.067-.114l-.236 1.753c.65.088 1.42.13 2.303.13v-1.77zm-2.067-.114a8.02 8.02 0 01-1.603-.389l-.589 1.668a9.787 9.787 0 001.956.474l.236-1.753zm-1.596-.386a4.728 4.728 0 01-1.275-.674l-1.076 1.404c.504.386 1.09.694 1.748.932l.603-1.662zm-1.264-.666a2.818 2.818 0 01-.768-.971l-1.582.79a4.584 4.584 0 001.252 1.568l1.098-1.387zm-.767-.968c-.186-.376-.297-.86-.297-1.482H33.17c0 .83.148 1.595.48 2.266l1.585-.784zm-.297-1.482c0-.622.113-1.171.325-1.66l-1.623-.704a5.884 5.884 0 00-.47 2.364h1.769zm.325-1.66c.223-.514.496-.894.804-1.168L34.89 34c-.532.473-.944 1.078-1.25 1.785l1.622.704zm.805-1.169c.95-.847 2.4-1.339 4.49-1.339v-1.768c-2.345 0-4.28.55-5.667 1.787l1.177 1.32zm4.49-1.339c.937 0 1.821.179 2.66.535l.69-1.629a8.5 8.5 0 00-3.35-.674v1.768zm2.651.531c.783.342 1.289.826 1.588 1.442l1.59-.774c-.506-1.042-1.353-1.801-2.47-2.29l-.708 1.622zm1.59 1.447c.166.334.255.714.255 1.154h1.768c0-.688-.141-1.34-.437-1.938l-1.586.783zm.257 1.09l-.104 1.425 1.764.128.104-1.425-1.764-.128zm.783.605l-7.005-.035-.008 1.769 7.004.034.009-1.769zm-7.864 1.075c.207.784.712 1.378 1.422 1.78l.87-1.54c-.35-.198-.512-.427-.582-.691l-1.71.45zm1.425 1.781c.718.401 1.615.562 2.617.562v-1.769c-.84 0-1.4-.139-1.753-.337l-.864 1.544zm2.617.562c1.076 0 2.257-.291 3.527-.82l-.68-1.632c-1.137.473-2.08.683-2.847.683v1.769zm3.187-.752h.466v-1.768h-.466v1.768zm-.416-.95l-.164 2.194 1.764.132.164-2.194-1.764-.132z"/></svg><svg viewBox="0 0 36 36" id="play" xmlns="http://www.w3.org/2000/svg"><g clip-path="url(#ia)"><path d="M32.16 16.08L8.94 4.47A2.07 2.07 0 006 6.32v23.21a2.06 2.06 0 003 1.85l23.16-11.61a2.07 2.07 0 000-3.7v.01z"/></g><defs><clipPath id="ia"><path d="M0 0h36v36H0z"/></clipPath></defs></svg><svg viewBox="0 0 34 34" id="telegram" xmlns="http://www.w3.org/2000/svg"><g clip-path="url(#ja)"><circle cx="17" cy="17" r="17"/><path d="M13.671 19.524l-.337 4.43c.483 0 .692-.194.943-.426l2.263-2.02 4.69 3.207c.86.447 1.467.211 1.699-.739l3.079-13.464v-.001c.273-1.187-.46-1.651-1.297-1.36L6.613 15.617c-1.236.448-1.217 1.09-.21 1.382l4.626 1.343 10.747-6.276c.506-.313.966-.14.587.173l-8.693 7.285z"/></g><defs><clipPath id="ja"><path d="M0 0h34v34H0z"/></clipPath></defs></svg></svg>